<?xml version="1.0" encoding="utf-8"?>
<!-- Generator: Adobe Illustrator 23.1.0, SVG Export Plug-In . SVG Version: 6.00 Build 0)  -->
<svg version="1.1" id="Слой_1" xmlns="http://www.w3.org/2000/svg" xmlns:xlink="http://www.w3.org/1999/xlink" x="0px" y="0px"
	 viewBox="0 0 43 43" style="enable-background:new 0 0 43 43;" xml:space="preserve">
<style type="text/css">
	.st0{fill-rule:evenodd;clip-rule:evenodd;fill:#75B726;}
</style>
<path id="accept" class="st0" d="M21.5,43C9.6,43,0,33.4,0,21.5S9.6,0,21.5,0S43,9.6,43,21.5l0,0C43,33.4,33.4,43,21.5,43z
	 M21.5,1.9c-10.8,0-19.6,8.8-19.6,19.6c0,10.8,8.8,19.6,19.6,19.6c10.8,0,19.6-8.8,19.6-19.6c0,0,0,0,0,0
	C41.1,10.7,32.3,1.9,21.5,1.9z M30,16.1l-7,8c-1.5,1.7-2.6,2.9-2.6,2.9L16,22l1.5-1.3l2.9,3.3l8.1-9.2L30,16.1z"/>
</svg>
