<svg xmlns="http://www.w3.org/2000/svg" width="81.97" height="81.969" viewBox="0 0 81.97 81.969">
  <defs>
    <style>
      .cls-1 {
        fill: #75b726;
        fill-rule: evenodd;
      }
    </style>
  </defs>
  <path id="like" class="cls-1" d="M1178.71,686.987a3.448,3.448,0,0,1-3.32-2.427l-12.26-40.639a3.377,3.377,0,0,1,2.35-4.205l20.84-6.009a3.537,3.537,0,0,1,2.65.274c0.8,0.43.77,0.155,1.03,1.019l12,41c0.26,0.863,1.05,2.438.61,3.227a3.48,3.48,0,0,1-2.07,1.629l-20.85,6a3.6,3.6,0,0,1-.98.135h0Zm-7.94-41.733,0.04,0.179,10.25,33.967,14.19-4.085-10.29-34.153-14.19,4.092h0Zm53.75,25.635a23.032,23.032,0,0,1-2.78-.183c-2.08-.26-5.26-0.521-8.88-0.819l-5.43-.456c-5.73-.5-4.9.206-6.43,0.569-1.78.425-2.47-5.271-3-7l-6-20c-0.4-1.32-2.1-6.143-1-7,4.41-3.426,7.45-8.579,10.13-13.144a32.359,32.359,0,0,0,.75-11.093,5.07,5.07,0,0,1,1.32-4.053c2.37-2.59,6.96-2.666,7.47-2.666a6.935,6.935,0,0,1,4.99,2.329c2.88,3.059,4.23,8.593,3.68,15.183-0.07.827-.2,1.713-0.34,2.639-0.08.53-.16,1.07-0.23,1.618-0.05.665-.09,1.336-0.12,1.984,1.63,0.606,6.01,1.341,13.32,1.341l1.44-.014a11.365,11.365,0,0,1,11.55,11.2,10.8,10.8,0,0,1-2.25,6.606,8.926,8.926,0,0,1,.15,2.364,9.674,9.674,0,0,1-3.23,6.679,0.876,0.876,0,0,1-.01.163,9.842,9.842,0,0,1-4.97,7.915c-0.07.241-.15,0.477-0.24,0.714-1.27,3.314-4.78,5.124-9.89,5.124h0Zm-21.95-8.467c1.65,0,3.49.089,5.47,0.26l5.4,0.453c3.75,0.311,7.04.583,9.17,0.854a16.551,16.551,0,0,0,1.91.125c2.35,0,3.29-.575,3.39-0.717a4.264,4.264,0,0,0,.25-1.052,3.411,3.411,0,0,1,2.29-2.812,3.252,3.252,0,0,0,2.25-2.841,3.023,3.023,0,0,0-.04-0.737,3.346,3.346,0,0,1,1.66-3.52,3.112,3.112,0,0,0,1.62-2.527,3.018,3.018,0,0,0-.28-1.466,3.349,3.349,0,0,1,.85-3.866,4.308,4.308,0,0,0,1.51-3.252,4.484,4.484,0,0,0-4.52-4.426c-0.01,0-.6.013-1.53,0.013-15.2,0-17.91-2.715-18.8-3.609a4.851,4.851,0,0,1-1.48-3.559c0.01-1.042.07-2.255,0.18-3.618,0.09-.748.18-1.344,0.27-1.919,0.12-.776.23-1.518,0.29-2.2,0.52-6.336-1.18-9.527-2-10.172a8.683,8.683,0,0,0-1.56.265,37.257,37.257,0,0,1-1.22,13.082,3.487,3.487,0,0,1-.26.618c-2.66,4.789-9.78,12.564-14.92,17.029L1198,663a45.814,45.814,0,0,1,4.57-.578h0Z" transform="translate(-1163 -605.031)"/>
</svg>
